<svg height="960" viewBox="0 0 960 960" width="960" xmlns="http://www.w3.org/2000/svg">
    <g fill="none" fill-rule="evenodd">
        <g stroke="#000" stroke-linejoin="round">
            <path d="m265.258193 23.120422 571.86467 37.0571739 10.337152 144.4785861v703.28016l-581.712683 29.209466-155.230618-70.215943v-762.514747z"
                  stroke-width="40"/>
            <path d="m269.579229 916.9282 1.955541-732.536423-1.955541-140.9494021" stroke-linecap="round"
                  stroke-width="20"/>
            <path d="m827.460015 205.370748-555.925245-20.978971" stroke-linecap="round" stroke-width="20"/>
        </g>
        <path d="m566 236c126.473208 0 229 109.466379 229 244.5s-102.526792 244.5-229 244.5c-1.503734 0-3.004083-.015475-4.500914-.046283l-.712152.013527-3.786934.032756c-126.473208 0-229-109.466379-229-244.5s102.526792-244.5 229-244.5c1.504069 0 3.004752.015482 4.501915.046304l.711151-.013548zm6 65c-93.10138 0-168.437628 80.435426-168.437628 179.5s75.336248 179.5 168.437628 179.5 168.437628-80.435426 168.437628-179.5-75.336248-179.5-168.437628-179.5zm0 10c87.426839 0 158.437628 75.817196 158.437628 169.5s-71.010789 169.5-158.437628 169.5c-8.290596 0-16.43357-.681789-24.382367-1.995947l-.229085-.004053c91.126984 0 165-74.768447 165-167s-73.873016-167-165-167c-1.899155 0-3.790816.032475-5.67447.096909 9.804388-2.033117 19.929988-3.096909 30.285922-3.096909z"
              fill="#000"/>
        <path d="m497.921334 76 1.533133 71.263082 138.407328 6.509459-1.861795-69.493623z" fill="#000"/>
        <path d="m382.388548 523.694655c72.159103 27.327774 140.740444 39.044628 205.744024 35.150563s119.817581-17.38716 164.442003-40.479284l-22.136947 82.840425-99.491941 82.428005-150.945687-9.992977-72.345603-66.163611z"
              fill="#000"/>
        <path d="m270.556999 747.038366 159.625377-4.121438c38.175519 20.590622 81.366651 32.121388 127.0449 32.083167l4.283103-.037573 1.494682.020806c.997078.016767 1.9954.016767 2.994939.016767 50.60425 0 98.149775-14.199036 139.196801-39.18333l143.380592-3.704745"
              stroke="#000" stroke-linecap="round" stroke-linejoin="round" stroke-width="20"/>
        <path d="m757.5 775c22.919817 0 41.5 19.923329 41.5 44.5s-18.580183 44.5-41.5 44.5c-.334233 0-.667544-.004237-.999887-.012663l-.313835.006701-.686278.005962c-22.919817 0-41.5-19.923329-41.5-44.5s18.580183-44.5 41.5-44.5c.334569 0 .668213.004245 1.000888.012688l.312834-.006726z"
              stroke="#000" stroke-linecap="round" stroke-linejoin="round" stroke-width="20"/>
    </g>
</svg>
