<svg height="960" viewBox="0 0 960 960" width="960" xmlns="http://www.w3.org/2000/svg">
    <g fill="none" fill-rule="evenodd">
        <g stroke="#000" stroke-linejoin="round">
            <path d="m81.5892816 36.4685298 797.5952024 17.1099459v838.3249463l-797.5952024 31.812356z"
                  stroke-width="40"/>
            <path d="m101 161 359 7m70 2 329 7" stroke-linecap="round" stroke-width="20"/>
            <path d="m101.589282 208.385771 757.595202 11.149452" stroke-linecap="round" stroke-width="20"/>
            <path d="m230.644793 245.056568 603.745058 10.376576v44.123463l-604.074303-9.25432-54.149514-1.806418v-43.439301z"
                  stroke-linecap="round" stroke-width="20"/>
            <path d="m230.558864 255.056568v25.248273" stroke-linecap="round" stroke-width="20"/>
            <path d="m191.076686 357.664826v392.742452l587.415105-19.529057v-373.213395z" stroke-linecap="round"
                  stroke-width="20"/>
            <path d="m403 83 179 5.9074611v57.0925389l-55.717502-1.498762c-5.310866-8.72244-14.589393-14.501238-25.147577-14.501238h-11.269842l-.493873.00422c-9.683884.165605-18.247333 5.192665-23.592204 12.868176l-62.779002-1.689108z"
                  stroke-linecap="round" stroke-width="20"/>
            <ellipse cx="500.858299" cy="161.296788" rx="29.950258" ry="31.645555" stroke-linecap="round"
                     stroke-width="20"/>
            <path d="m490 193c-16.568542 0-30-14.10303-30-31.5s13.431458-31.5 30-31.5h11c16.568542 0 30 14.10303 30 31.5s-13.431458 31.5-30 31.5z"
                  stroke-linecap="round" stroke-width="20"/>
        </g>
        <path d="m242.653975 571.767346 428.453563-5.427749h8.210848c4.637312 0 9.775629-6.926315 15.41495-20.778945h-452.079361z"
              fill="#000"/>
        <path d="m242.653975 653.141631 428.453563-5.427749h8.210848c4.637312 0 9.775629-6.926315 15.41495-20.778945l-452.079361 4.986064z"
              fill="#000"/>
    </g>
</svg>
